<svg xmlns="http://www.w3.org/2000/svg" width="400" height="300" viewBox="0 0 400 300">
  <defs>
    <linearGradient id="bg" x1="0" y1="0" x2="1" y2="1">
      <stop offset="0%" stop-color="#f5ebe0"/>
      <stop offset="100%" stop-color="#e8d5b7"/>
    </linearGradient>
  </defs>
  <rect width="400" height="300" fill="url(#bg)"/>
  <circle cx="200" cy="108" r="72" fill="#4a2c1a" opacity="0.16"/>
  <g transform="translate(200,108)">
    <path d="M-42 -20 L42 -20 L36 36 Q34 48 20 48 L-20 48 Q-34 48 -36 36 Z" fill="#2b1810"/>
    <ellipse cx="0" cy="-20" rx="42" ry="9" fill="#fdfaf6" opacity="0.9"/>
    <ellipse cx="0" cy="-20" rx="42" ry="9" fill="none" stroke="#2b1810" stroke-width="2" opacity="0.3"/>
    <path d="M40 -8 Q64 -8 64 12 Q64 32 40 32" fill="none" stroke="#2b1810" stroke-width="6"/><path d="M-11.200000000000001 -26 Q-16.0 -37.2 -11.200000000000001 -43.6 Q-6.4 -50.0 -11.200000000000001 -58.0"
      stroke="#2b1810" stroke-width="2.4000000000000004" fill="none" opacity="0.5" stroke-linecap="round"/>
    <path d="M1.6 -26 Q-3.2 -37.2 1.6 -43.6 Q6.4 -50.0 1.6 -58.0"
      stroke="#2b1810" stroke-width="2.4000000000000004" fill="none" opacity="0.5" stroke-linecap="round"/>
    <path d="M14.4 -26 Q9.600000000000001 -37.2 14.4 -43.6 Q19.200000000000003 -50.0 14.4 -58.0"
      stroke="#2b1810" stroke-width="2.4000000000000004" fill="none" opacity="0.5" stroke-linecap="round"/>
  </g>
  <text x="200" y="222" font-family="Georgia, 'Playfair Display', serif" font-size="21" fill="#2b1810" text-anchor="middle" font-weight="600">Espresso</text>
  <text x="200" y="246" font-family="'DM Sans', Arial, sans-serif" font-size="11" fill="#b08560" text-anchor="middle" letter-spacing="2">XIANG DE COFFEE</text>
</svg>