<svg xmlns="http://www.w3.org/2000/svg" width="400" height="300" viewBox="0 0 400 300">
  <defs>
    <linearGradient id="bg" x1="0" y1="0" x2="1" y2="1">
      <stop offset="0%" stop-color="#f5ebe0"/>
      <stop offset="100%" stop-color="#e8d5b7"/>
    </linearGradient>
  </defs>
  <rect width="400" height="300" fill="url(#bg)"/>
  <circle cx="200" cy="108" r="72" fill="#e8b23d" opacity="0.16"/>
  <g transform="translate(200,108)">
    <path d="M-78 6 Q-78 40 0 42 Q78 40 78 6 Z" fill="#fdfaf6" stroke="#4a2c1a" stroke-width="3"/>
    <ellipse cx="0" cy="6" rx="78" ry="14" fill="#fdfaf6" stroke="#4a2c1a" stroke-width="3"/><ellipse cx="0" cy="6" rx="66" ry="10" fill="#e8b23d" opacity="0.85"/><circle cx="-20" cy="2" r="5" fill="#fdfaf6"/><circle cx="10" cy="0" r="5" fill="#fdfaf6"/><circle cx="30" cy="4" r="4" fill="#6b8e4e"/><path d="M-15.799999999999999 -18 Q-20.0 -27.799999999999997 -15.799999999999999 -33.4 Q-11.6 -39.0 -15.799999999999999 -46.0"
      stroke="#2b1810" stroke-width="2.0999999999999996" fill="none" opacity="0.4" stroke-linecap="round"/>
    <path d="M-4.6 -18 Q-8.8 -27.799999999999997 -4.6 -33.4 Q-0.40000000000000036 -39.0 -4.6 -46.0"
      stroke="#2b1810" stroke-width="2.0999999999999996" fill="none" opacity="0.4" stroke-linecap="round"/>
    <path d="M6.6 -18 Q2.3999999999999986 -27.799999999999997 6.6 -33.4 Q10.799999999999997 -39.0 6.6 -46.0"
      stroke="#2b1810" stroke-width="2.0999999999999996" fill="none" opacity="0.4" stroke-linecap="round"/>
  </g>
  <text x="200" y="222" font-family="Georgia, 'Playfair Display', serif" font-size="21" fill="#2b1810" text-anchor="middle" font-weight="600">Soto Ayam</text>
  <text x="200" y="246" font-family="'DM Sans', Arial, sans-serif" font-size="11" fill="#b08560" text-anchor="middle" letter-spacing="2">XIANG DE COFFEE</text>
</svg>